<?xml version="1.0" encoding="utf-8"?>
<!-- Generator: Adobe Illustrator 24.0.2, SVG Export Plug-In . SVG Version: 6.00 Build 0)  -->
<svg version="1.1" id="Слой_1" xmlns="http://www.w3.org/2000/svg" xmlns:xlink="http://www.w3.org/1999/xlink" x="0px" y="0px"
	 viewBox="0 0 500 500" style="enable-background:new 0 0 500 500;" xml:space="preserve">
<style type="text/css">
	.st0{fill:#01EBD0;}
	.st1{fill:#FFFFFF;}
</style>
<path class="st0" d="M442.3,141.7v201.8c0,4-3.3,7.3-7.3,7.3l-172.5-0.3c-6.2,0-9.5-7.3-5.5-12c57.6-67.1,115.2-134.3,172.7-201.4
	C434,132.1,442.3,135.1,442.3,141.7z"/>
<path class="st1" d="M161.7,397.2h272.7c4,0,7.2,3.2,7.2,7.2v89c0,4-3.2,7.2-7.2,7.2H129.1c-1.9,0-3.7-0.7-5-2.1l-97.5-96.6
	c-2.6-2.6-2.8-6.8-0.5-9.7L351.4,3.1c1.4-1.6,3.4-2.6,5.5-2.6h110c6.1,0,9.4,7.1,5.5,11.8L156.2,385.4
	C152.3,390,155.6,397.2,161.7,397.2z"/>
</svg>
