<?xml version="1.0" encoding="utf-8"?>
<!-- Generator: Adobe Illustrator 24.0.2, SVG Export Plug-In . SVG Version: 6.00 Build 0)  -->
<svg version="1.1" id="Слой_1" xmlns="http://www.w3.org/2000/svg" xmlns:xlink="http://www.w3.org/1999/xlink" x="0px" y="0px"
	 viewBox="0 0 500 500" style="enable-background:new 0 0 500 500;" xml:space="preserve">
<style type="text/css">
	.st0{fill:#0F1923;}
	.st1{fill:#ECE8E1;}
	.st2{fill:#FF4655;}
</style>
<path class="st0" d="M380,500H120C53.7,500,0,446.3,0,380V120C0,53.7,53.7,0,120,0h260c66.3,0,120,53.7,120,120v260
	C500,446.3,446.3,500,380,500z"/>
<path class="st1" d="M154.1,327.1h-71c-4.5,0-6.9-5.3-4-8.7L300.2,60.1c2.5-2.9,6.2-4.6,10-4.6c23.7,0.1,47.4,0.3,71.1,0.4
	c4.4,0,6.8,5.2,3.9,8.6c-73.7,86-147.5,172-221.2,258C161.6,325.5,157.9,327.1,154.1,327.1z"/>
<path class="st2" d="M364.9,157.9v146.5c0,2.9-2.4,5.3-5.3,5.3l-125.2-0.2c-4.5,0-6.9-5.3-4-8.7c41.8-48.7,83.6-97.5,125.4-146.2
	C358.9,150.9,364.9,153.1,364.9,157.9z"/>
<path class="st1" d="M364.9,349.6v89.7c0,2.9-2.3,5.2-5.2,5.2h-67.1c-4.1,0-8-1.5-11.1-4.1c-33-28.3-66-56.6-99-84.9
	c-4.5-3.9-1.8-11.3,4.2-11.3h172.7C362.5,344.1,364.9,346.6,364.9,349.6z"/>
</svg>
