<?xml version="1.0" encoding="utf-8"?>
<!-- Generator: Adobe Illustrator 24.0.2, SVG Export Plug-In . SVG Version: 6.00 Build 0)  -->
<svg version="1.1" id="Слой_1" xmlns="http://www.w3.org/2000/svg" xmlns:xlink="http://www.w3.org/1999/xlink" x="0px" y="0px"
	 viewBox="0 0 500 500" style="enable-background:new 0 0 500 500;" xml:space="preserve">
<style type="text/css">
	.st0{fill:#F09819;}
	.st1{fill:#00A8FF;}
	.st2{fill:#F2F2F2;}
	.st3{fill:#004BCF;}
	.st4{fill:#FFDD00;}
	.st5{fill:#F7BA0D;}
	.st6{fill:#0079E7;}
</style>
<g>
	<path class="st0" d="M244.6,266c0-0.3,23.3-2.2,30-3.3c13.2-2.2,25.8-6.2,37.5-11.7c0.1-0.1,0.2-0.1,0.3-0.2
		c8.1-3.8,15.9-8.4,23.1-13.6c5.9-4.3,11.6-9,16.8-14.1c3.2-3,6.2-6.3,9.1-9.6c9.2-10.7,16.9-22.8,22.8-35.8
		c4.2-9.4,7.5-19.4,9.7-29.7c0.8-3.8,1.5-7.6,1.9-11.5c10.3,2.5,20.1,6.4,29.2,11.5c13.5,7.5,25.3,17.7,34.9,29.7
		c5.2,6.5,9.6,13.6,13.3,21.2c-17.2,35.2-51.6,60.5-92.2,65c-3,0.3-6.1,0.6-9.2,0.7"/>
	<path class="st1" d="M367.2,114.9c0-0.8,0-1.6-0.1-2.4c0-0.8-0.1-1.6-0.1-2.4c0,0,0,0,0-0.1c0-0.7-0.1-1.4-0.1-2.1
		c0-0.5-0.1-1.1-0.1-1.6c0-0.2,0-0.5-0.1-0.7c-0.1-0.9-0.2-1.7-0.3-2.6c-0.3-2.2-0.6-4.3-1-6.4c-0.1-0.8-0.3-1.6-0.4-2.3
		c-0.2-0.8-0.3-1.6-0.5-2.4c-0.3-1.2-0.6-2.4-0.9-3.6c-0.1-0.5-0.3-1-0.4-1.5c-0.3-1.2-0.7-2.5-1.1-3.7c-0.3-0.9-0.6-1.8-0.9-2.7
		c-0.3-0.9-0.6-1.8-0.9-2.7c-0.3-0.7-0.5-1.4-0.8-2.1c-0.1-0.4-0.3-0.8-0.4-1.1c-0.4-1-0.8-2.1-1.3-3.1c-0.3-0.6-0.5-1.2-0.8-1.8
		c-0.6-1.3-1.2-2.7-1.9-4c-0.3-0.5-0.5-1.1-0.8-1.6c-0.2-0.5-0.5-0.9-0.7-1.4c-0.3-0.6-0.7-1.3-1.1-1.9c-0.3-0.6-0.7-1.2-1-1.8
		c0,0,0,0,0-0.1c-0.4-0.7-0.8-1.4-1.2-2c-0.8-1.4-1.7-2.7-2.6-4c-0.4-0.7-0.9-1.3-1.4-2c-0.5-0.7-0.9-1.3-1.4-1.9
		c-0.4-0.6-0.9-1.2-1.4-1.9c0,0-0.1-0.1-0.1-0.1c-0.5-0.6-0.9-1.2-1.4-1.8c-0.5-0.7-1.1-1.3-1.6-2c-0.3-0.4-0.6-0.7-0.9-1.1
		c-0.3-0.4-0.7-0.8-1-1.2c-0.3-0.4-0.7-0.8-1-1.2c-1.3-1.5-2.6-2.9-4-4.3C312.2,13.7,282.6,0.4,250,0.4c-8.4,0-16.7,0.9-24.6,2.6
		c-48.4,10.3-85.8,50.5-91.8,100.4h102.1v0c1,0,1.9,0,2.9,0c0.8,0,1.5,0,2.3,0.1h0c0.4,0,0.7,0,1.1,0.1c0.7,0,1.5,0.1,2.2,0.1
		c0.7,0.1,1.5,0.1,2.2,0.2c0.4,0,0.8,0.1,1.1,0.1c0.6,0.1,1.2,0.1,1.7,0.2c0.4,0,0.8,0.1,1.2,0.2c0.7,0.1,1.3,0.2,2,0.3
		c0,0,0.1,0,0.1,0c0.8,0.1,1.5,0.2,2.3,0.4c1.1,0.2,2.1,0.4,3.2,0.6c25.2,5,47.6,18.2,64.1,36.6c1.7,1.9,3.3,3.8,4.8,5.7
		c7.1,8.9,12.9,19,17.1,29.7c0.8,2.1,1.6,4.3,2.3,6.4c1.4-2.1,2.8-4.2,4.1-6.4c5.5-9.2,9.8-19.2,12.6-29.7c1.3-4.8,2.3-9.8,2.9-14.9
		c0.7-5.1,1-10.2,1-15.5C367.2,116.7,367.2,115.8,367.2,114.9z M249.4,55.9c-1.7,5.9-7.2,10.3-13.7,10.3c-4.1,0-7.7-1.7-10.3-4.4
		c-2.5-2.6-4-6.1-4-9.9s1.5-7.4,4-9.9c2.6-2.7,6.2-4.4,10.3-4.4c6.5,0,12,4.3,13.7,10.3c0.4,1.3,0.6,2.6,0.6,4
		C250,53.3,249.8,54.6,249.4,55.9z"/>
	<path class="st2" d="M250,51.9c0,1.4-0.2,2.7-0.6,4c-1.7,5.9-7.2,10.3-13.7,10.3c-4.1,0-7.7-1.7-10.3-4.4c-2.5-2.6-4-6.1-4-9.9
		s1.5-7.4,4-9.9c2.6-2.7,6.2-4.4,10.3-4.4c6.5,0,12,4.3,13.7,10.3C249.8,49.1,250,50.5,250,51.9z"/>
	<path class="st3" d="M242.5,237.1l-6.9,0.8c-16.9,1.6-33.1,6.1-47.8,13c-0.1,0.1-0.2,0.1-0.3,0.2c-14.8,7-28.3,16.4-39.9,27.6
		c-3,2.9-5.9,5.9-8.6,9.1c-8.4,9.6-15.5,20.3-21.2,31.9c-0.7,1.5-1.4,2.9-2.1,4.4c-5.8,12.9-9.7,26.7-11.6,41.3
		C78.4,359.1,56,344.3,40,324.1c-5.2-6.5-9.6-13.6-13.3-21.2c17.1-34.9,50.9-60,91.1-64.9c0.4-0.1,0.8-0.1,1.3-0.1
		c4.3-0.5,8.6-0.7,13-0.7L242.5,237.1z"/>
	<path class="st4" d="M264.3,397.4l-14.9-1c-2.4-0.3-4.9-0.7-7.3-1.2c-25-4.9-47.2-17.8-63.8-35.9c-9.4-10.2-16.9-22.1-22.2-35.2
		c-1-2.5-1.9-5-2.8-7.6c-1.7,2.5-3.3,5-4.8,7.6c-7.8,13.4-13,28.5-15,44.6c-0.6,4.7-0.9,9.5-0.9,14.3c0,28.5,10.2,54.6,27.1,74.9
		c2.4,2.9,5,5.7,7.6,8.3c21.2,21,50.4,34,82.6,34c36.3,0,68.7-16.5,90.2-42.3c13.8-16.6,23.1-37,26.1-59.5L264.3,397.4z
		 M276.3,458.1c-2.6,3.5-6.8,5.7-11.4,5.7s-8.8-2.3-11.4-5.7c-1.8-2.4-2.9-5.4-2.9-8.6c0-7.9,6.4-14.3,14.3-14.3
		c7.9,0,14.3,6.4,14.3,14.3C279.1,452.7,278.1,455.7,276.3,458.1z"/>
	<path class="st2" d="M279.1,449.5c0,3.2-1.1,6.2-2.9,8.6c-2.6,3.5-6.8,5.7-11.4,5.7s-8.8-2.3-11.4-5.7c-1.8-2.4-2.9-5.4-2.9-8.6
		c0-7.9,6.4-14.3,14.3-14.3C272.7,435.2,279.1,441.6,279.1,449.5z"/>
	<path class="st5" d="M371.8,264.6c3.1-0.1,6.2-0.3,9.2-0.7c40.6-4.5,75-29.8,92.2-65c7.6,15.5,11.9,33,11.9,51.5
		c0,5.2-0.3,10.4-1,15.4c-6.3,48.2-42,87.2-88.4,98.5c-0.1,0-0.1,0-0.1,0c-1.8,0.4-4.4,1.1-7.6,1.7c-3,0.6-5.4,1.1-8.1,1.6
		c-2.8,0.4-6.7,0.9-11.4,1.1H294c-16,0-29.1,12.7-29.7,28.6c-5,0-10-0.4-14.9-1c-2.4-0.3-4.9-0.7-7.3-1.2
		c-25-4.9-47.2-17.8-63.8-35.9c-9.4-10.2-16.9-22.1-22.2-35.2c-1-2.5-1.9-5-2.8-7.6c1.7-2.4,3.4-4.8,5.3-7
		c14.3-17.8,33.8-31.3,56.1-38.3c6.8-2.1,13.8-3.7,21-4.5c4.2-0.5,8.5-0.8,12.9-0.9c0.3,0,0.6,0,0.9,0c0.2,0,0.4,0,0.6,0
		c0.5,0,1.1,0,1.6,0c0,0,0,0,0,0"/>
	<path class="st6" d="M157,133.1h48.9c7.4,0,14.2-2.7,19.5-7.2c6.3-5.4,10.3-13.5,10.3-22.5c1,0,1.9,0,2.9,0c0.8,0,1.5,0,2.3,0.1h0
		c0.4,0,0.7,0,1.1,0.1c0.7,0,1.5,0.1,2.2,0.1c0.7,0.1,1.5,0.1,2.2,0.2c0.4,0,0.8,0.1,1.1,0.1c0.6,0.1,1.2,0.1,1.7,0.2
		c0.4,0,0.8,0.1,1.2,0.2c0.7,0.1,1.3,0.2,2,0.3c0,0,0.1,0,0.1,0c0.8,0.1,1.5,0.2,2.3,0.4c1.1,0.2,2.1,0.4,3.2,0.6
		c25.2,5,47.6,18.2,64.1,36.6c1.7,1.9,3.3,3.8,4.8,5.7c7.1,8.9,12.9,19,17.1,29.7c0.8,2.1,1.6,4.3,2.3,6.4c-1.7,2.4-3.4,4.8-5.3,7
		c-14.5,18-34.3,31.7-57,38.6c-3.8,1.1-6.8,1.8-9.8,2.6c-14.5,3.4-26.9,4.5-35.5,4.9c-40.4,0-121.3,0.9-121.3,0.9
		c-40.1,4.9-74,30-91.1,64.9c-7.6-15.5-11.9-33-11.9-51.5c0-55.2,38.1-101.5,89.4-113.9c8.9-2.2,27.8-3.3,27.8-3.3"/>
</g>
</svg>
