<?xml version="1.0" encoding="utf-8"?>
<!-- Generator: Adobe Illustrator 24.0.2, SVG Export Plug-In . SVG Version: 6.00 Build 0)  -->
<svg version="1.1" id="Слой_1" xmlns="http://www.w3.org/2000/svg" xmlns:xlink="http://www.w3.org/1999/xlink" x="0px" y="0px"
	 viewBox="0 0 150 50" style="enable-background:new 0 0 150 50;" xml:space="preserve">
<style type="text/css">
	.st0{fill:#FFFFFF;}
	.st1{fill:url(#SVGID_1_);}
	.st2{fill:url(#SVGID_2_);}
	.st3{fill:url(#SVGID_3_);}
	.st4{fill:url(#SVGID_4_);}
	.st5{opacity:0.64;fill:#00A99D;enable-background:new    ;}
	.st6{fill:url(#SVGID_5_);}
	.st7{fill:url(#SVGID_6_);}
	.st8{fill:url(#SVGID_7_);}
	.st9{fill:url(#SVGID_8_);}
</style>
<g>
	<path class="st0" d="M79,26.9V22h2.9v12.7H79v-4.9h-9.8l5.3-15.1h3l-4.3,12.3H79z"/>
	<path class="st0" d="M93.8,20.4c1,0.5,1.8,1.4,2.3,2.4L93.6,24c-0.5-1.1-1.7-1.7-3.1-1.7c-2.1,0-3.5,1.3-3.5,3.5v2.5
		c0,2.1,1.3,3.5,3.5,3.5c1.4,0,2.5-0.6,3.1-1.7l2.5,1.3c-0.5,1-1.3,1.8-2.3,2.4c-1,0.5-2.1,0.8-3.3,0.8c-0.9,0-1.7-0.1-2.5-0.5
		c-0.8-0.3-1.5-0.7-2-1.3c-0.6-0.6-1-1.3-1.3-2c-0.3-0.8-0.5-1.6-0.5-2.5v-2.5c0-0.9,0.1-1.7,0.5-2.5c0.3-0.8,0.7-1.5,1.3-2.1
		c0.6-0.6,1.3-1,2-1.3c0.8-0.3,1.6-0.5,2.5-0.5C91.7,19.5,92.9,19.8,93.8,20.4z"/>
	<path class="st0" d="M106.7,20c0.8,0.3,1.5,0.7,2.1,1.3c0.6,0.6,1,1.3,1.3,2.1c0.3,0.8,0.5,1.6,0.5,2.5v2.5c0,0.9-0.1,1.7-0.5,2.5
		c-0.3,0.8-0.7,1.5-1.3,2c-0.6,0.6-1.3,1-2.1,1.3c-0.8,0.3-1.6,0.5-2.5,0.5c-0.9,0-1.7-0.1-2.5-0.5c-0.8-0.3-1.5-0.7-2-1.3
		c-0.6-0.6-1-1.3-1.3-2c-0.3-0.8-0.5-1.6-0.5-2.5v-2.5c0-0.9,0.1-1.7,0.5-2.5c0.3-0.8,0.7-1.5,1.3-2.1c0.6-0.6,1.3-1,2-1.3
		c0.8-0.3,1.6-0.5,2.5-0.5C105.1,19.5,105.9,19.7,106.7,20z M100.7,25.8v2.5c0,2.1,1.3,3.5,3.5,3.5c2.1,0,3.5-1.3,3.5-3.5v-2.5
		c0-2.1-1.3-3.5-3.5-3.5C102,22.4,100.7,23.7,100.7,25.8z"/>
	<path class="st0" d="M122,34.6c0,0-2.6,0-3.5,0c-0.9,0-1.7-0.1-2.5-0.5c-0.8-0.3-1.5-0.7-2.1-1.3c-0.6-0.6-1-1.3-1.3-2
		c-0.3-0.8-0.5-1.6-0.5-2.5v-2.5c0-0.9,0.1-1.7,0.5-2.5c0.3-0.8,0.7-1.5,1.3-2.1c0.6-0.6,1.3-1,2.1-1.3c0.8-0.3,1.6-0.5,2.5-0.5
		c0.9,0,1.7,0.2,2.5,0.5c0.3,0.1,0.7,0.3,0.9,0.5v-5.8h2.9v20H122z M115.1,25.8v2.5c0,2.1,1.3,3.5,3.5,3.5c2.1,0,3.5-1.3,3.5-3.5
		v-2.5c0-2.1-1.3-3.5-3.5-3.5C116.4,22.4,115.1,23.7,115.1,25.8z"/>
	<path class="st0" d="M136,20c0.8,0.3,1.5,0.7,2.1,1.3c0.6,0.6,1,1.3,1.3,2.1c0.3,0.8,0.5,1.6,0.5,2.5v2.7H130
		c0.1,2,1.4,3.3,3.5,3.3c1,0,1.9-0.3,2.5-0.9l1.9,2.1c-1.1,1.1-2.7,1.6-4.4,1.6c-0.9,0-1.7-0.1-2.5-0.5c-0.8-0.3-1.5-0.7-2-1.3
		c-0.6-0.6-1-1.3-1.3-2c-0.3-0.8-0.5-1.6-0.5-2.5v-2.5c0-0.9,0.1-1.7,0.5-2.5c0.3-0.8,0.7-1.5,1.3-2.1c0.6-0.6,1.3-1,2-1.3
		c0.8-0.3,1.6-0.5,2.5-0.5C134.4,19.5,135.2,19.7,136,20z M130,25.6h6.9c-0.1-2-1.4-3.3-3.5-3.3C131.4,22.4,130.1,23.6,130,25.6z"/>
	<path class="st0" d="M144.9,22.3l0,3.5v8.8h-2.9V19.5h2.9c0,0,2.6,0,3.5,0h1.4v2.9L144.9,22.3z"/>
</g>
<g>
	
		<linearGradient id="SVGID_1_" gradientUnits="userSpaceOnUse" x1="21.7127" y1="56.5544" x2="1.1353" y2="14.4668" gradientTransform="matrix(1 0 0 -1 0 51)">
		<stop  offset="0" style="stop-color:#FFFFFF"/>
		<stop  offset="2.062309e-02" style="stop-color:#F6FEFD"/>
		<stop  offset="0.1816" style="stop-color:#B6F9F2"/>
		<stop  offset="0.3406" style="stop-color:#7FF5E7"/>
		<stop  offset="0.4934" style="stop-color:#52F1DF"/>
		<stop  offset="0.6391" style="stop-color:#2FEFD8"/>
		<stop  offset="0.7757" style="stop-color:#15EDD4"/>
		<stop  offset="0.8997" style="stop-color:#06EBD1"/>
		<stop  offset="1" style="stop-color:#01EBD0"/>
	</linearGradient>
	<polygon class="st1" points="25.8,0 11.6,25.2 -0.1,25.2 4.6,16.8 14,0 	"/>
	
		<linearGradient id="SVGID_2_" gradientUnits="userSpaceOnUse" x1="19.4754" y1="-8.7501" x2="9.0025" y2="25.436" gradientTransform="matrix(1 0 0 -1 0 51)">
		<stop  offset="0.2391" style="stop-color:#814EFA"/>
		<stop  offset="0.3118" style="stop-color:#745DF6"/>
		<stop  offset="0.9944" style="stop-color:#01EBD0"/>
	</linearGradient>
	<polygon class="st2" points="25.5,50 13.8,50 7.9,39.5 4.4,33.2 -0.1,25.2 11.6,25.2 19.6,39.5 	"/>
	
		<linearGradient id="SVGID_3_" gradientUnits="userSpaceOnUse" x1="27.752" y1="51.3626" x2="12.2455" y2="20.8266" gradientTransform="matrix(1 0 0 -1 0 51)">
		<stop  offset="0" style="stop-color:#FFFFFF"/>
		<stop  offset="5.151084e-02" style="stop-color:#E8FFFC"/>
		<stop  offset="0.1863" style="stop-color:#B2FFF6"/>
		<stop  offset="0.318" style="stop-color:#85FEF0"/>
		<stop  offset="0.4435" style="stop-color:#62FEEC"/>
		<stop  offset="0.5612" style="stop-color:#49FEE9"/>
		<stop  offset="0.6681" style="stop-color:#39FEE7"/>
		<stop  offset="0.7545" style="stop-color:#34FEE6"/>
	</linearGradient>
	<polygon class="st3" points="28.4,4.6 28.4,4.6 16.7,25.2 11.6,25.2 25.8,0 28.4,4.5 	"/>
	
		<linearGradient id="SVGID_4_" gradientUnits="userSpaceOnUse" x1="22.9274" y1="6.7682" x2="17.6182" y2="22.7416" gradientTransform="matrix(1 0 0 -1 0 51)">
		<stop  offset="0" style="stop-color:#9C74FB"/>
		<stop  offset="0.3148" style="stop-color:#78A4F4"/>
		<stop  offset="0.7764" style="stop-color:#47E5EA"/>
		<stop  offset="0.9944" style="stop-color:#34FEE6"/>
	</linearGradient>
	<polygon class="st4" points="28.4,45.7 28.4,45.7 28.4,45.7 25.5,50 19.6,39.5 11.6,25.2 16.7,25.2 24.9,39.5 	"/>
	<polygon class="st5" points="28.4,4.6 28.4,4.6 28.4,4.6 28.4,4.5 	"/>
	
		<linearGradient id="SVGID_5_" gradientUnits="userSpaceOnUse" x1="26.6424" y1="65.9948" x2="51.6914" y2="26.1551" gradientTransform="matrix(1 0 0 -1 0 51)">
		<stop  offset="0.1396" style="stop-color:#814EFA"/>
		<stop  offset="0.4763" style="stop-color:#4B91E8"/>
		<stop  offset="0.832" style="stop-color:#16D2D7"/>
		<stop  offset="1" style="stop-color:#01EBD0"/>
	</linearGradient>
	<polygon class="st6" points="56.9,25.2 45.2,25.2 31.1,0 42.8,0 52.2,16.8 	"/>
	
		<linearGradient id="SVGID_6_" gradientUnits="userSpaceOnUse" x1="31.0165" y1="-11.442" x2="51.7713" y2="27.9207" gradientTransform="matrix(1 0 0 -1 0 51)">
		<stop  offset="0.1925" style="stop-color:#FFFFFF"/>
		<stop  offset="0.2092" style="stop-color:#F6FEFD"/>
		<stop  offset="0.3392" style="stop-color:#B6F9F2"/>
		<stop  offset="0.4675" style="stop-color:#7FF5E7"/>
		<stop  offset="0.591" style="stop-color:#52F1DF"/>
		<stop  offset="0.7086" style="stop-color:#2FEFD8"/>
		<stop  offset="0.8189" style="stop-color:#15EDD4"/>
		<stop  offset="0.919" style="stop-color:#06EBD1"/>
		<stop  offset="1" style="stop-color:#01EBD0"/>
	</linearGradient>
	<polygon class="st7" points="56.9,25.2 52.4,33.2 48.9,39.5 43,50 31.3,50 37.2,39.5 45.2,25.2 	"/>
	
		<linearGradient id="SVGID_7_" gradientUnits="userSpaceOnUse" x1="28.125" y1="53.3654" x2="42.6772" y2="24.4995" gradientTransform="matrix(1 0 0 -1 0 51)">
		<stop  offset="0" style="stop-color:#9C74FB"/>
		<stop  offset="0.3148" style="stop-color:#78A4F4"/>
		<stop  offset="0.7764" style="stop-color:#47E5EA"/>
		<stop  offset="0.9944" style="stop-color:#34FEE6"/>
	</linearGradient>
	<polygon class="st8" points="45.2,25.2 40.1,25.2 28.4,4.6 28.4,4.6 28.4,4.5 31.1,0 	"/>
	<polygon class="st5" points="28.4,4.6 28.4,4.6 28.4,4.5 	"/>
	
		<linearGradient id="SVGID_8_" gradientUnits="userSpaceOnUse" x1="29.9266" y1="0.8209" x2="43.0475" y2="28.9712" gradientTransform="matrix(1 0 0 -1 0 51)">
		<stop  offset="0" style="stop-color:#FFFFFF"/>
		<stop  offset="5.151084e-02" style="stop-color:#E8FFFC"/>
		<stop  offset="0.1863" style="stop-color:#B2FFF6"/>
		<stop  offset="0.318" style="stop-color:#85FEF0"/>
		<stop  offset="0.4435" style="stop-color:#62FEEC"/>
		<stop  offset="0.5612" style="stop-color:#49FEE9"/>
		<stop  offset="0.6681" style="stop-color:#39FEE7"/>
		<stop  offset="0.7545" style="stop-color:#34FEE6"/>
	</linearGradient>
	<polygon class="st9" points="45.2,25.2 37.2,39.5 31.3,50 28.4,45.7 28.4,45.7 28.4,45.7 31.9,39.5 40.1,25.2 	"/>
</g>
</svg>
